PathFileType	4	(X/Y/Z)	Kaydara	
DataRate	CameraRate	NumFrames	NumMarkers	Units	OrigDataRate	OrigDataStartFrame	OrigNumFrames	
24.00	24.00	7	28	mm	24.00	32	250	
Frame#	Time	reference			Hips			Spine			Spine1			Neck			Head			Head_End			LeftShoulder			LeftArm			LeftForeArm			LeftHand			LeftHand_End			RightShoulder			RightArm			RightForeArm			RightHand			RightHand_End			LeftUpLeg			LeftLeg			LeftFoot			LeftFoot_End			RightUpLeg			RightLeg			RightFoot			RightFoot_End			Tail			Tail1			Tail1_End			
		X1	Y1	Z1	X2	Y2	Z2	X3	Y3	Z3	X4	Y4	Z4	X5	Y5	Z5	X6	Y6	Z6	X7	Y7	Z7	X8	Y8	Z8	X9	Y9	Z9	X10	Y10	Z10	X11	Y11	Z11	X12	Y12	Z12	X13	Y13	Z13	X14	Y14	Z14	X15	Y15	Z15	X16	Y16	Z16	X17	Y17	Z17	X18	Y18	Z18	X19	Y19	Z19	X20	Y20	Z20	X21	Y21	Z21	X22	Y22	Z22	X23	Y23	Z23	X24	Y24	Z24	X25	Y25	Z25	X26	Y26	Z26	X27	Y27	Z27	X28	Y28	Z28	

32	1.292	0.00000	0.00000	0.00000	197.85114	466.60828	-95.01556	197.85152	466.60830	-95.01546	186.33283	458.81464	94.47485	185.05493	439.46719	318.71802	178.71777	436.70841	458.54758	162.62431	391.48621	621.63023	229.07665	411.31759	290.27829	268.61612	354.81504	330.82590	275.43879	248.54905	222.35930	220.70470	79.85411	237.53130	204.94365	19.13128	272.86290	143.11102	408.95680	289.58546	97.36300	358.67507	331.79018	74.21209	225.03007	263.18146	117.10137	114.68089	396.10081	144.90500	68.56130	443.89136	247.22080	382.15845	-141.72673	289.65981	236.95768	-89.61437	267.88657	133.06041	-234.98042	264.79750	29.31084	-264.82141	151.66935	377.87330	-136.78192	151.08629	277.84123	-11.90905	156.43187	104.68099	-60.76561	158.66966	4.78536	-19.77954	195.35451	446.47623	-160.70495	218.93005	340.16431	-211.12253	243.64361	233.70292	-260.67261 
33	1.333	0.00000	0.00000	0.00000	194.71851	468.53184	-88.38348	194.71889	468.53186	-88.38338	181.25616	458.43187	100.86975	183.80714	439.67519	325.15224	177.64234	436.76536	464.98644	159.81501	389.45446	627.29437	227.72230	412.00769	296.08164	268.36961	355.58267	335.62943	274.56684	249.54331	226.90379	220.39834	80.42603	239.11481	205.12787	18.80695	273.08387	141.79343	408.55846	296.77129	97.12192	357.64967	339.37556	77.86807	218.61110	281.05170	121.28860	106.18479	412.04393	144.17460	63.24006	465.10971	245.11961	384.89152	-135.44828	284.81933	238.45610	-84.64836	265.36512	134.36880	-230.20719	263.82333	31.30933	-262.46191	149.54037	380.03346	-131.72002	147.92823	277.46486	-8.93129	155.46196	105.00227	-59.92054	158.47354	4.82747	-19.67202	193.13190	449.14145	-154.32379	216.65258	342.61733	-204.31730	241.50132	235.47798	-252.31416 
34	1.375	0.00000	0.00000	0.00000	191.58108	470.59605	-80.79010	191.58145	470.59607	-80.78999	176.05249	458.76544	108.20442	182.14595	439.69317	332.39201	175.84714	436.62047	472.21676	156.41389	387.15044	633.69451	225.95040	412.59374	302.62758	267.66677	356.11316	340.96430	273.75542	250.67778	231.64678	220.18230	81.18914	241.00172	205.19668	18.79897	273.66505	140.08804	408.12408	304.58184	96.49920	356.79207	347.79538	80.84461	213.90529	298.37465	120.90238	96.35910	425.89819	143.07689	54.13806	479.83955	242.80059	387.80839	-128.47483	281.50541	240.48445	-79.50927	263.54409	135.85700	-224.87259	263.18797	33.61260	-259.65701	147.20496	382.56013	-125.86250	144.77010	277.62610	-5.10279	154.44409	105.93574	-58.28962	158.40008	5.10496	-19.79926	190.78497	452.13457	-147.01070	214.14669	345.59231	-197.04009	238.59945	237.87188	-243.92685 
35	1.417	0.00000	0.00000	0.00000	188.48415	472.67399	-72.46246	188.48453	472.67401	-72.46234	170.98865	459.44286	116.26717	180.50723	439.70421	340.27776	174.19095	436.75631	480.10439	153.11066	384.64811	640.54241	224.15287	413.15314	309.79448	267.09259	356.69225	346.78587	272.48003	252.13704	236.58968	220.18797	82.10941	242.92507	205.22951	18.87900	273.94368	138.37776	407.79559	312.96788	95.62009	356.33618	356.85505	86.30677	212.17170	309.59014	116.67561	86.74987	432.19146	135.44210	39.80228	483.45293	240.37346	390.76999	-120.94240	279.02264	242.73257	-74.13222	262.30332	137.67561	-219.33383	262.83260	36.26965	-256.48959	144.77503	385.20358	-119.25480	141.52417	277.44069	-1.03221	153.51811	106.68691	-56.70356	158.35272	5.35018	-19.66984	188.32663	455.21813	-138.95980	211.58718	348.88658	-189.48218	235.42129	240.86859	-236.00150 
36	1.458	0.00000	0.00000	0.00000	185.23823	474.25896	-64.23218	185.23860	474.25898	-64.23206	166.12310	459.65701	124.23910	178.79063	439.31598	348.03976	172.53384	436.17051	487.86477	150.65466	383.08412	647.87457	222.33336	413.36168	316.90239	266.17829	356.64904	352.41735	271.81224	253.20423	241.19036	220.12885	82.90840	244.67570	205.32521	18.93621	274.21222	136.67346	407.01577	321.17488	94.43123	355.97885	366.04356	86.07119	212.93643	315.31800	115.15037	82.46667	432.85958	130.34355	31.56317	481.45997	237.76427	393.29032	-113.58968	276.81395	244.73935	-68.78161	260.99152	140.69484	-214.81037	262.69863	39.56405	-252.67390	142.18501	387.26496	-112.49756	138.80959	277.18504	3.56711	152.53015	107.58265	-55.14218	158.15980	5.70138	-19.75127	185.51631	457.75049	-130.97063	208.80388	351.74477	-182.16086	231.90621	243.65629	-228.88516 
37	1.500	0.00000	0.00000	0.00000	181.94206	474.64806	-55.94818	181.94243	474.64808	-55.94806	163.08531	459.83181	132.53241	177.75012	438.50952	356.11966	171.61393	435.68715	495.95691	147.98926	380.58708	655.03506	221.18134	412.95997	324.49561	265.79197	356.07325	358.75650	270.80864	254.02152	246.22077	219.87924	83.46307	246.18933	205.30910	18.90792	274.55022	135.59900	406.08848	329.45431	93.90248	355.26354	375.06788	78.87822	214.28123	320.27403	116.16271	82.58535	434.07230	136.61841	33.99344	483.10683	235.11234	394.58242	-106.08284	275.35948	246.68370	-60.18986	260.72567	144.75066	-207.82290	262.84076	44.62183	-248.24248	139.56407	388.02272	-105.45818	136.78926	276.53885	9.27470	151.97890	108.53318	-53.52161	158.61973	6.14128	-19.81998	182.58103	458.96619	-122.88322	206.03902	353.38338	-174.86356	228.47539	245.49944	-222.37843 
38	1.542	0.00000	0.00000	0.00000	178.38562	474.48322	-47.98401	178.38599	474.48325	-47.98389	160.86148	461.49390	140.75977	177.19997	438.01449	364.01462	170.51507	435.01475	503.82302	146.65130	379.54541	662.73706	220.40966	412.80089	331.82257	265.38095	355.46609	364.84257	269.58494	255.04090	250.82011	219.17578	84.34876	248.15501	205.05662	19.17875	275.31222	134.87052	405.82618	337.34983	93.59940	355.24716	383.61894	74.34778	215.91075	326.00948	115.04062	81.06424	434.84190	138.33872	32.31091	482.42663	232.24872	395.34391	-98.84465	274.39797	248.79022	-50.41441	260.47050	150.02092	-200.24985	263.59429	50.24351	-241.46524	136.75297	388.04371	-98.44208	134.78765	275.63899	15.40564	151.51660	109.35835	-51.45915	158.87408	6.53109	-19.26561	179.24893	459.48975	-115.07409	203.26552	354.60288	-168.19574	225.44568	247.28621	-217.09533 
